<svg width="112" height="36" viewBox="0 0 112 36" fill="none" xmlns="http://www.w3.org/2000/svg">
<g clip-path="url(#clip0_0_4149)">
<path fill-rule="evenodd" clip-rule="evenodd" d="M25.1056 4.34314H29.1573C32.7611 4.34314 35.687 7.269 35.687 10.8729V25.1199C35.687 28.7237 32.7611 31.6496 29.1573 31.6496H28.838C26.9831 31.3594 26.1787 30.8031 25.5573 30.333L20.4059 26.0974C20.2768 25.993 20.1158 25.9361 19.9499 25.9361C19.7839 25.9361 19.6229 25.993 19.4939 26.0974L17.8203 27.4736L13.1069 23.598C12.978 23.4934 12.817 23.4364 12.6511 23.4364C12.4851 23.4364 12.3242 23.4934 12.1953 23.598L5.64714 29.3584C4.32929 30.4303 3.45757 30.2323 2.89229 30.1701C1.43214 28.9719 0.5 27.1539 0.5 25.1199V10.8729C0.5 7.269 3.42586 4.34314 7.03014 4.34314H11.0729L11.0656 4.35943L10.9293 4.75671L10.8869 4.893L10.7034 5.70685L10.6781 5.84957L10.5976 6.66471L10.5869 6.88843L10.5851 6.96685L10.5929 7.34057L10.6113 7.55957L10.6567 7.90243L10.7146 8.211L10.7831 8.49514L10.8723 8.80285L11.1037 9.45428L11.18 9.64971L11.5829 10.5009L11.7251 10.7623L12.191 11.562L12.3693 11.8504L13.0194 12.8079L13.1133 12.9347L13.9593 14.0357L14.2327 14.3747L15.1987 15.504L15.3971 15.7213L16.1934 16.578L16.5089 16.9046L17.03 17.4223L16.9254 17.5097L16.8603 17.5684C16.6833 17.7334 16.5153 17.9087 16.358 18.093C16.2824 18.1821 16.2104 18.2742 16.142 18.369C16.0377 18.5138 15.9445 18.6662 15.863 18.825C15.8214 18.9074 15.784 18.992 15.7511 19.0783C15.6663 19.2988 15.6153 19.5308 15.5999 19.7666L15.5969 19.9701C15.6043 20.2572 15.6627 20.5406 15.7696 20.8071C15.8778 21.0773 16.0357 21.3249 16.235 21.537C16.3799 21.6913 16.5449 21.8259 16.7257 21.9364C16.8796 22.0307 17.0437 22.1083 17.2143 22.1674C17.5851 22.2931 17.9785 22.3378 18.368 22.2986H18.3701C18.7025 22.2663 19.0255 22.1704 19.3216 22.0161C19.4493 21.9484 19.571 21.87 19.685 21.7809C20.0114 21.5268 20.2644 21.1904 20.4179 20.8063C20.5379 20.5067 20.5966 20.1866 20.5914 19.8643L20.582 19.6959C20.5602 19.4734 20.5072 19.2551 20.4243 19.0474C20.3884 18.957 20.3476 18.8686 20.3021 18.7826C20.2178 18.6241 20.1218 18.4721 20.015 18.3279C19.9661 18.2618 19.9155 18.1971 19.8633 18.1337C19.6893 17.9261 19.5021 17.7299 19.3027 17.5466L19.1617 17.4266L19.4004 17.1909L20.4264 16.1194L20.7813 15.7299L21.3329 15.1093L21.6916 14.6897L22.2033 14.0666L22.5496 13.6311L23.0583 12.951L23.315 12.5991L23.6793 12.0544L23.9827 11.5903L24.5544 10.5947L24.8814 9.94157L24.8909 9.92143L25.1411 9.31543C25.1444 9.30759 25.1473 9.29958 25.1497 9.29143L25.4193 8.45057L25.4476 8.328L25.5646 7.65857L25.5873 7.47728L25.5941 7.36628L25.6023 6.94714L25.6001 6.86914L25.5787 6.49371L25.5521 6.20228L25.4193 5.36185C25.4171 5.35071 25.415 5.33957 25.4116 5.32843L25.241 4.707L25.1823 4.53428L25.1056 4.34314ZM27.0316 22.1096C26.623 22.1153 26.2329 22.2802 25.9439 22.5691C25.655 22.858 25.4902 23.2482 25.4844 23.6567C25.4904 24.0651 25.6553 24.4552 25.9442 24.7439C26.2331 25.0327 26.6231 25.1976 27.0316 25.2034C27.44 25.1975 27.83 25.0326 28.119 24.7439C28.4079 24.4551 28.5729 24.0651 28.5791 23.6567C28.5733 23.2481 28.4083 22.858 28.1194 22.5691C27.8304 22.2802 27.4401 22.1153 27.0316 22.1096Z" fill="url(#paint0_radial_0_4149)"/>
<path fill-rule="evenodd" clip-rule="evenodd" d="M15.7739 31.0903L15.5009 31.3196C15.2485 31.5278 14.9323 31.6431 14.6051 31.6461H7.02929C5.52033 31.648 4.05768 31.1252 2.89186 30.1671C3.45714 30.2293 4.32886 30.4273 5.64671 29.3554L12.194 23.5954C12.3231 23.4912 12.4839 23.4344 12.6498 23.4344C12.8157 23.4344 12.9765 23.4912 13.1056 23.5954L17.8186 27.4706L19.4917 26.0949C19.757 25.8806 20.1389 25.8806 20.4037 26.0949L25.5547 30.33C26.1761 30.8001 26.9806 31.356 28.835 31.6461H25.4086C25.1058 31.6426 24.8117 31.5446 24.5673 31.3659L24.5073 31.3196L24.2531 31.1083C24.2327 31.0836 24.21 31.0608 24.1854 31.0401C23.8974 30.7989 20.2481 27.7757 20.2481 27.7757C20.171 27.7116 20.0738 27.6765 19.9735 27.6767C19.8732 27.6769 19.7761 27.7122 19.6991 27.7766C19.6991 27.7766 19.7081 27.7877 15.8257 31.0401C15.8072 31.0555 15.7899 31.0723 15.7739 31.0903ZM27.029 22.1074C26.6211 22.1149 26.232 22.2802 25.9434 22.5687C25.6549 22.8571 25.4894 23.2462 25.4819 23.6541C25.4897 24.062 25.6552 24.451 25.9437 24.7394C26.2321 25.0278 26.6212 25.1932 27.029 25.2009C27.4368 25.1932 27.8259 25.0278 28.1143 24.7394C28.4028 24.451 28.5683 24.062 28.5761 23.6541C28.5686 23.2462 28.4031 22.8571 28.1146 22.5687C27.826 22.2802 27.4369 22.1149 27.029 22.1074ZM17.0283 17.4206L16.5071 16.9029L16.1917 16.5763L15.3954 15.7196L15.197 15.5023L14.2314 14.3734L13.958 14.0344L13.112 12.9334L13.0181 12.8066L12.368 11.8491L12.1897 11.5607L11.7239 10.761L11.5816 10.4996L11.1787 9.64886L11.1024 9.45343L10.8714 8.802L10.7823 8.49429L10.7137 8.21014L10.6559 7.90157L10.6104 7.55871L10.592 7.33971L10.5843 6.966L10.586 6.88757L10.5967 6.66386L10.6773 5.84914L10.7026 5.70643L10.886 4.89257L10.928 4.75629L11.0643 4.359L11.108 4.25614L11.3249 3.77957L11.4753 3.49586L11.6849 3.15043L11.8936 2.84271L12.0423 2.64729L12.2137 2.44071L12.4023 2.23329L12.5639 2.07129L12.9573 1.725L13.2449 1.48971C13.2517 1.48371 13.259 1.47857 13.2663 1.47343L13.6066 1.24329L13.877 1.071L14.3904 0.800571C14.3981 0.795857 14.4071 0.792 14.4153 0.788143L15.143 0.486L15.2103 0.460714L15.8574 0.271286L16.1309 0.21L16.5003 0.135857L16.7454 0.0985714L17.1213 0.0518571L17.3776 0.0291429L17.8863 0.00214286L18.0856 0L18.4631 0.00771429L18.5613 0.0132857L19.1081 0.0587143L19.8311 0.160714L19.9147 0.178286L20.6296 0.356143L20.8396 0.418714L21.0727 0.499286L21.3569 0.606857L21.5814 0.702L21.9114 0.857571L22.1193 0.964286L22.493 1.18371L22.6323 1.26943L23.1419 1.64143L23.288 1.76829L23.6429 2.09143L23.6604 2.109L23.9617 2.43214L24.0654 2.54914L24.419 3.01886L24.491 3.13114L24.7717 3.60514L24.8561 3.76757L25.0143 4.12114L25.1797 4.53386L25.2384 4.70657L25.409 5.328C25.4121 5.33902 25.4146 5.35018 25.4167 5.36143L25.5496 6.20186L25.5761 6.49286L25.5976 6.86829L25.5997 6.94629L25.5916 7.36543L25.5847 7.47643L25.562 7.65771L25.445 8.32714L25.4167 8.44971L25.1471 9.29057C25.1447 9.2987 25.1418 9.30671 25.1386 9.31457L24.8883 9.92057L24.8789 9.94071L24.5519 10.5934L23.9801 11.589L23.6767 12.0531L23.3129 12.5979L23.0561 12.9497L22.5474 13.6299L22.2011 14.0653L21.6894 14.688L21.3307 15.1076L20.7791 15.7281L20.4243 16.1177L19.3983 17.1891L19.16 17.4249L19.3006 17.5449C19.4999 17.7283 19.6871 17.9241 19.8611 18.132C19.9134 18.1954 19.964 18.2601 20.0129 18.3261C20.1196 18.4701 20.2156 18.6223 20.3 18.7804C20.3454 18.8661 20.3861 18.9549 20.4221 19.0453C20.504 19.2527 20.5593 19.4721 20.5799 19.6937L20.5893 19.8621C20.5944 20.1844 20.5357 20.505 20.4157 20.8041C20.2622 21.1883 20.0093 21.5247 19.6829 21.7787C19.5689 21.8679 19.4471 21.9463 19.3194 22.014C19.0234 22.1682 18.7006 22.2641 18.3684 22.2964H18.3663C17.9768 22.3355 17.5834 22.2908 17.2126 22.1653C17.0419 22.106 16.8781 22.0286 16.724 21.9343C16.5433 21.8237 16.3782 21.6894 16.2333 21.5349C16.0341 21.3226 15.8762 21.0751 15.7679 20.805C15.6612 20.5384 15.6027 20.255 15.5951 19.968L15.5981 19.7644C15.6136 19.5287 15.6646 19.2966 15.7494 19.0761C15.7824 18.9896 15.8197 18.9051 15.8613 18.8229C15.9427 18.6643 16.0361 18.5121 16.1403 18.3673C16.2084 18.2726 16.2809 18.1804 16.3563 18.0913C16.5136 17.907 16.6816 17.7317 16.8586 17.5667L16.9237 17.508L17.0283 17.4206Z" fill="#281950"/>
<path fill-rule="evenodd" clip-rule="evenodd" d="M15.5009 31.3196L19.6991 27.7766C19.7761 27.7122 19.8732 27.6769 19.9735 27.6767C20.0738 27.6766 20.171 27.7116 20.2481 27.7758L24.5073 31.3196C24.7661 31.5305 25.0901 31.6458 25.424 31.6462H14.5897C14.9223 31.6462 15.2441 31.5309 15.5009 31.3196ZM18.1143 18.672L18.1554 18.684C18.1687 18.6905 18.1799 18.6995 18.1919 18.7076L18.2261 18.738C18.311 18.816 18.3933 18.8979 18.4726 18.9819C18.5283 19.0415 18.5827 19.1028 18.635 19.1662C18.7014 19.2463 18.7636 19.3303 18.8201 19.4178C18.8446 19.4563 18.8673 19.4953 18.8887 19.536C18.9071 19.5712 18.9239 19.6076 18.9384 19.6445C18.9641 19.7088 18.9834 19.7765 18.9894 19.8455L18.9881 19.9749C18.9795 20.0917 18.9433 20.2048 18.8824 20.3049C18.8215 20.4049 18.7378 20.4891 18.638 20.5505C18.5084 20.6288 18.3628 20.6768 18.212 20.6906L18.0521 20.6953L17.9171 20.6833C17.854 20.6741 17.7919 20.6591 17.7316 20.6383C17.6702 20.6174 17.6112 20.5898 17.5559 20.556L17.4504 20.4789C17.3262 20.3729 17.2416 20.2278 17.2104 20.0675C17.2052 20.0405 17.2011 20.0133 17.198 19.986L17.1941 19.8626C17.1963 19.8292 17.2014 19.7962 17.2087 19.7632C17.2271 19.6912 17.2537 19.6213 17.2871 19.5549C17.3304 19.4718 17.3797 19.3916 17.4346 19.3153C17.5259 19.1919 17.6249 19.0745 17.7307 18.9635C17.7989 18.8915 17.8687 18.8216 17.9416 18.7543L17.9934 18.7076C18.0294 18.684 18.0299 18.684 18.071 18.672H18.1143ZM17.849 1.46576L17.8657 1.46448V15.8923L17.8297 15.8259C17.3548 14.9473 16.9126 14.0514 16.5041 13.14C16.1728 12.4023 15.8727 11.6509 15.6046 10.8879C15.3905 10.2801 15.2096 9.66123 15.0624 9.03391C14.9489 8.53548 14.8614 8.02976 14.8254 7.51891C14.8114 7.30092 14.8073 7.08241 14.813 6.86405C14.8164 6.67376 14.8241 6.48391 14.8361 6.29405C14.855 5.99576 14.8854 5.69791 14.9291 5.40219C14.9639 5.16948 15.0067 4.93762 15.0594 4.70833C15.1014 4.52619 15.1503 4.34533 15.206 4.16748C15.2866 3.91033 15.383 3.65919 15.4953 3.41405C15.5364 3.32576 15.5806 3.23791 15.6269 3.15176C15.9054 2.63576 16.2834 2.16048 16.7784 1.84291C17.1001 1.63354 17.4672 1.50422 17.849 1.46576ZM19.7197 1.50219L20.6904 1.77905C21.14 1.94491 21.5729 2.16091 21.9706 2.43091C22.5127 2.7968 22.9799 3.26286 23.3471 3.80405C23.5623 4.12462 23.7406 4.47048 23.8799 4.83176C24.0817 5.36619 24.2069 5.92633 24.251 6.49548C24.2639 6.64462 24.2711 6.79419 24.2741 6.94376C24.2776 7.08262 24.2767 7.22191 24.2656 7.36076C24.2381 7.67148 24.1799 7.97876 24.0911 8.27791C24.0199 8.52271 23.936 8.76361 23.8396 8.99962C23.7196 9.29319 23.5863 9.58119 23.4401 9.86233C23.117 10.4868 22.7446 11.0846 22.346 11.6628C21.8519 12.3733 21.3252 13.0606 20.7676 13.7225C20.1621 14.4445 19.5307 15.1444 18.8746 15.8208C19.3198 14.9859 19.7353 14.1355 20.1204 13.2712C20.3347 12.7895 20.5366 12.3026 20.7264 11.811C20.9351 11.271 21.1237 10.7238 21.2909 10.1696C21.4151 9.75433 21.5249 9.33476 21.6153 8.91048C21.6929 8.54662 21.7537 8.17891 21.7914 7.80905C21.8231 7.50048 21.8347 7.19019 21.827 6.88076C21.8241 6.69135 21.8171 6.50202 21.806 6.31291C21.7606 5.55219 21.6449 4.79362 21.4229 4.06376C21.3388 3.78704 21.2366 3.51617 21.1169 3.25291C20.8327 2.63405 20.4363 2.05591 19.8997 1.63376L19.7197 1.50219Z" fill="white"/>
<path fill-rule="evenodd" clip-rule="evenodd" d="M77.3056 27.5559L72.698 17.6923C72.3131 16.8708 72.0839 16.5703 71.699 16.2219L71.3244 15.8842C71.0257 15.5945 70.8294 15.3262 70.8294 15.0078C70.8294 14.5518 71.1907 14.1678 71.8486 14.1678H75.8489C76.4767 14.1678 76.868 14.4943 76.868 14.982C76.868 15.2542 76.7429 15.4582 76.5847 15.6583C76.397 15.8962 76.1527 16.128 76.1527 16.5506C76.1527 16.8155 76.2299 17.0795 76.3786 17.4168L79.1283 23.856L81.5947 17.5788C81.7464 17.1613 81.8501 16.7936 81.8501 16.4992C81.8501 16.041 81.6011 15.8542 81.4091 15.6493C81.242 15.4715 81.1083 15.2833 81.1083 14.982C81.1083 14.4896 81.509 14.1678 82.0481 14.1678H84.5116C85.2024 14.1678 85.5307 14.5252 85.5307 14.982C85.5307 15.2743 85.3623 15.5452 85.031 15.8375L84.6826 16.1238C84.1974 16.5202 83.9729 17.0936 83.7179 17.6868L79.9824 26.6859C79.541 27.738 78.884 29.1986 77.8803 30.3969C76.8607 31.614 75.4859 32.5603 73.6237 32.5603C72.0646 32.5603 71.1209 31.8159 71.1209 30.7432C71.1209 29.7605 71.8477 28.9775 72.8026 28.9775C73.3254 28.9775 73.5976 29.2243 73.8736 29.4785C74.1016 29.688 74.333 29.9032 74.7894 29.9032C75.2129 29.9032 75.6071 29.724 75.9646 29.4348C76.5106 28.9933 76.9679 28.2982 77.3056 27.5559ZM104.381 27.5208C106.454 27.5208 108.154 26.8102 109.479 25.392C110.804 23.976 111.466 22.2716 111.466 20.2788C111.466 18.3335 110.837 16.7353 109.582 15.4826C108.328 14.2308 106.701 13.602 104.698 13.602C102.59 13.602 100.865 14.2865 99.5223 15.6506C98.1787 17.016 97.5067 18.6699 97.5067 20.6126C97.5067 22.5382 98.1479 24.1702 99.428 25.509C100.709 26.8488 102.359 27.5208 104.381 27.5208ZM86.843 27.3665C88.0421 27.3665 88.895 26.559 88.895 25.395C88.895 24.2585 88.0143 23.4493 86.843 23.4493C85.616 23.4493 84.7379 24.2598 84.7379 25.395C84.7379 26.5578 85.6164 27.3665 86.843 27.3665ZM91.1133 25.5215L91.4051 25.2129C91.7523 24.8756 91.8641 24.5349 91.8641 23.5955V18.0416C91.8641 17.2295 91.7536 16.8669 91.409 16.5566L91.0657 16.2489C90.7293 15.9519 90.6187 15.7672 90.6187 15.4706C90.6187 15.0489 90.9457 14.703 91.4716 14.583L93.803 14.0173C94.0259 13.9633 94.2774 13.9106 94.4724 13.9106C94.7407 13.9106 94.9601 13.9989 95.114 14.1519C95.2683 14.3053 95.3591 14.526 95.3591 14.802V23.5955C95.3591 24.4822 95.4667 24.8945 95.837 25.206C95.843 25.2112 95.8486 25.2168 95.8537 25.2228L96.1143 25.5262C96.4417 25.8446 96.5776 26.0559 96.5776 26.3465C96.5776 26.8646 96.1867 27.1608 95.5589 27.1608H91.6113C91.013 27.1608 90.6187 26.8663 90.6187 26.3465C90.6187 26.0546 90.7546 25.8416 91.1133 25.5215ZM64.7274 25.5219L65.0193 25.2129C65.3669 24.8756 65.4783 24.5349 65.4783 23.5955V11.9996C65.4783 11.2132 65.3951 10.827 65.027 10.5172L64.6747 10.176C64.3709 9.88075 64.2599 9.69775 64.2599 9.40247C64.2599 8.98032 64.5886 8.63575 65.0857 8.51532L67.3906 7.94961C67.6139 7.89561 67.865 7.8429 68.0604 7.8429C68.3266 7.8429 68.552 7.92304 68.7127 8.07518C68.8739 8.22775 68.9733 8.45447 68.9733 8.76004V23.5955C68.9733 24.4843 69.0839 24.873 69.4554 25.2095L69.7529 25.524C70.0824 25.8446 70.1921 26.0546 70.1921 26.3465C70.1921 26.5616 70.1266 26.7352 70.0096 26.8676C69.8446 27.054 69.5681 27.1608 69.1996 27.1608H65.2524C64.8839 27.1608 64.6074 27.054 64.442 26.8676C64.3254 26.7352 64.2599 26.5616 64.2599 26.3465C64.2599 26.0542 64.3683 25.8425 64.7274 25.5219ZM53.9793 19.5502V23.544C53.9793 24.1458 54.0984 24.7016 54.5943 25.1589L54.9149 25.47C55.274 25.8185 55.3833 26.0272 55.3833 26.3465C55.3833 26.8342 54.992 27.1608 54.3641 27.1608H49.9134C49.2856 27.1608 48.8947 26.8342 48.8947 26.3465C48.8947 25.9676 49.0057 25.788 49.3649 25.4683L49.6841 25.158C50.0561 24.8212 50.2987 24.3622 50.2987 23.544V12.8739C50.2987 12.2238 50.1547 11.6919 49.6837 11.2586L49.3627 10.9475C49.0327 10.6273 48.8947 10.4169 48.8947 10.0968C48.8947 9.5799 49.2869 9.25675 49.9134 9.25675H61.835C62.2906 9.25675 62.6909 9.35832 62.9467 9.60904C63.1246 9.78347 63.2381 10.0295 63.251 10.371L63.4366 13.1229C63.455 13.467 63.3534 13.7538 63.155 13.9308C63.0183 14.0525 62.8344 14.1253 62.603 14.1253C62.3111 14.1253 62.0874 14.0152 61.8877 13.8249C61.7081 13.6539 61.5483 13.4139 61.3679 13.1315C60.9324 12.4355 60.7297 12.1852 60.2656 11.8599C59.6197 11.3833 58.6357 11.2196 56.7749 11.2196C55.7013 11.2196 55.0237 11.2663 54.5969 11.3765C54.3209 11.4476 54.1614 11.5402 54.0761 11.676C53.9887 11.8149 53.9793 11.9906 53.9793 12.2053V17.613H56.7749C57.4439 17.613 57.9144 17.4922 58.4596 16.7469L58.4626 16.7426C58.6811 16.4645 58.8393 16.2596 58.9897 16.1238C59.165 15.9652 59.3334 15.8902 59.5567 15.8902C59.7715 15.8921 59.9768 15.9788 60.128 16.1314C60.2791 16.284 60.3638 16.4901 60.3637 16.7049V20.433C60.3637 20.9323 59.9746 21.273 59.5567 21.273C59.3489 21.273 59.18 21.1989 59.0043 21.0438C58.853 20.9109 58.6944 20.7116 58.4887 20.4455C57.8921 19.6732 57.4709 19.5502 56.7749 19.5502H53.9793ZM101.214 19.4559C101.214 18.1183 101.505 17.157 102.109 16.5789C102.706 16.008 103.347 15.7192 104.036 15.7192C104.984 15.7192 105.838 16.2498 106.609 17.2929C107.396 18.3596 107.786 19.8013 107.786 21.6155C107.786 22.9543 107.493 23.9246 106.889 24.5195C106.292 25.1062 105.652 25.4036 104.963 25.4036C104.015 25.4036 103.161 24.8688 102.391 23.8175C101.603 22.7418 101.214 21.2872 101.214 19.4559ZM93.413 12.2225C94.6147 12.2225 95.465 11.5462 95.465 10.3796C95.465 9.24047 94.6156 8.56247 93.413 8.56247C92.1826 8.56247 91.334 9.2409 91.334 10.3796C91.334 11.5179 92.183 12.2225 93.413 12.2225Z" fill="#281950"/>
</g>
<defs>
<radialGradient id="paint0_radial_0_4149" cx="0" cy="0" r="1" gradientUnits="userSpaceOnUse" gradientTransform="translate(19.1827 17.8774) scale(25.4899)">
<stop stop-color="#BA7BF0"/>
<stop offset="0.45" stop-color="#996BEC"/>
<stop offset="1" stop-color="#5046E4"/>
</radialGradient>
<clipPath id="clip0_0_4149">
<rect width="111" height="36" fill="white" transform="translate(0.5)"/>
</clipPath>
</defs>
</svg>
